<svg width="432" height="431" viewBox="0 0 432 431" fill="none" xmlns="http://www.w3.org/2000/svg">
<path d="M306.482 401.484H296.801V401.762H306.482V401.484Z" fill="#07393C"/>
<path d="M398.49 206.874V69.335H306.537V206.874H398.49Z" fill="#E6E6E6"/>
<path d="M395.694 206.862V69.3237H303.741V206.862H395.694Z" fill="#F5F5F5"/>
<path d="M383.874 81.1438H315.561V195.054H383.874V81.1438Z" fill="white"/>
<path d="M317.121 195.054V81.1438H315.572V195.054H317.121Z" fill="#E6E6E6"/>
<path d="M176.819 380.529H215.811L215.811 254.766H176.819V380.529Z" fill="#E6E6E6"/>
<path d="M184.217 380.529H176.808V362.682H191.981L184.217 380.529Z" fill="#F0F0F0"/>
<path d="M385.177 380.507H424.168V254.744H385.177V380.507Z" fill="#E6E6E6"/>
<path d="M176.819 377.911H391.638V254.766H176.819V377.911Z" fill="#F0F0F0"/>
<path d="M182.557 262.274V290.582H313.055V262.274H182.557Z" fill="#E6E6E6"/>
<path d="M318.034 262.264V290.571H385.901V262.264H318.034Z" fill="#E6E6E6"/>
<path d="M345.228 265.684H358.652C364.044 265.799 369.368 264.468 374.07 261.829H329.821C334.52 264.466 339.84 265.797 345.228 265.684Z" fill="#F0F0F0"/>
<path d="M209.082 265.684H285.137C290.528 265.799 295.852 264.468 300.555 261.829H193.719C198.406 264.458 203.709 265.788 209.082 265.684Z" fill="#F0F0F0"/>
<path d="M182.568 298.681V326.988H313.066V298.681H182.568Z" fill="#E6E6E6"/>
<path d="M318.034 298.681V326.988H385.901V298.681H318.034Z" fill="#E6E6E6"/>
<path d="M345.228 302.101H358.652C364.042 302.216 369.365 300.889 374.07 298.258H329.821C334.523 300.887 339.842 302.214 345.228 302.101Z" fill="#F0F0F0"/>
<path d="M209.082 302.101H285.137C290.528 302.217 295.852 300.886 300.555 298.247H193.719C198.406 300.875 203.709 302.206 209.082 302.101Z" fill="#F0F0F0"/>
<path d="M182.557 335.099V363.406H313.055V335.099H182.557Z" fill="#E6E6E6"/>
<path d="M318.034 335.099V363.406H385.901V335.099H318.034Z" fill="#E6E6E6"/>
<path d="M345.228 338.508H358.652C364.044 338.624 369.368 337.293 374.07 334.653H329.821C334.521 337.29 339.84 338.621 345.228 338.508Z" fill="#F0F0F0"/>
<path d="M209.093 338.508H285.137C290.532 338.622 295.859 337.292 300.566 334.653H193.719C198.409 337.285 203.717 338.616 209.093 338.508Z" fill="#F0F0F0"/>
<path d="M384.23 380.529H391.627V362.682H376.465L384.23 380.529Z" fill="#F0F0F0"/>
<path d="M404.528 232.385C404.528 232.385 403.414 245.163 359.967 245.163C316.519 245.163 315.472 232.385 315.472 232.385H404.528Z" fill="#FAFAFA"/>
<path d="M404.528 241.943C404.528 241.943 403.414 254.721 359.967 254.721C316.519 254.721 315.528 241.943 315.528 241.943H404.528Z" fill="#07393C"/>
<path d="M100.798 380.529H145.381L132.169 265.861H100.798V380.529Z" fill="#E6E6E6"/>
<path d="M25.5559 380.529H124.705L135.166 246.321H36.0167L25.5559 380.529Z" fill="#E0E0E0"/>
<path d="M18.415 380.529H121.597L132.058 246.321H28.8869L18.415 380.529Z" fill="#F5F5F5"/>
<path d="M111.849 369.946L120.661 256.894H38.6347L29.8227 369.946H111.849Z" fill="white"/>
<path d="M259.47 38.8438H6.81789V222.982H259.47V38.8438Z" fill="#07393C"/>
<path d="M250.825 48.5806H15.4628V213.235H250.825V48.5806Z" fill="#FAFAFA"/>
<path d="M66.1068 213.246H41.4086L64.6697 48.5806H89.3678L66.1068 213.246Z" fill="white"/>
<path d="M127.145 213.246H102.435L125.696 48.5806H150.406L127.145 213.246Z" fill="white"/>
<path d="M205.829 213.246H193.474L216.735 48.5806H229.09L205.829 213.246Z" fill="white"/>
<path d="M148.868 213.246H136.514L159.775 48.5806H172.129L148.868 213.246Z" fill="white"/>
<path d="M94.3587 48.5806H82.717V213.235H94.3587V48.5806Z" fill="#07393C"/>
<path d="M94.3586 213.246H96.9543L96.9543 48.5914H94.3586L94.3586 213.246Z" fill="#E0E0E0"/>
<path d="M259.47 222.982H261.33V38.8438H259.47V222.982Z" fill="#E0E0E0"/>
<path d="M216 430.839C335.293 430.839 432 425.193 432 418.228C432 411.263 335.293 405.617 216 405.617C96.7065 405.617 0 411.263 0 418.228C0 425.193 96.7065 430.839 216 430.839Z" fill="white"/>
<path d="M267.892 385.999L282.018 377.844L290.64 395.101L278.843 401.941L267.892 385.999Z" fill="#FFC3BD"/>
<path opacity="0.2" d="M267.903 385.999L282.029 377.844L286.853 387.514L274.03 394.934L267.903 385.999Z" fill="black"/>
<path d="M272.972 330.342C282.998 307.17 299.452 280.21 292.701 255.39L247.739 248.282C247.739 248.282 238.448 303.828 240.286 326.61C242.202 350.294 270.164 392.338 270.164 392.338L286.262 382.891C286.262 382.891 279.266 346.952 272.972 330.342Z" fill="#2C666E"/>
<g opacity="0.4">
<path d="M272.972 330.342C282.998 307.17 299.452 280.21 292.701 255.39L247.739 248.282C247.739 248.282 238.448 303.828 240.286 326.61C242.202 350.294 270.164 392.338 270.164 392.338L286.262 382.891C286.262 382.891 279.266 346.952 272.972 330.342Z" fill="black"/>
</g>
<path d="M287.889 382.701L269.496 393.563L263.636 385.954L285.315 374.469L287.889 382.701Z" fill="#2C666E"/>
<path opacity="0.2" d="M276.258 323.023C281.672 311.292 287.911 298.793 291.442 286.26C280.826 288.042 271.824 296.665 276.258 323.023Z" fill="black"/>
<path d="M290.172 391.012C290.107 390.923 290.02 390.851 289.921 390.804C289.821 390.757 289.711 390.735 289.6 390.74C289.49 390.746 289.383 390.778 289.288 390.836C289.193 390.893 289.115 390.972 289.058 391.068C286.741 395.045 280.068 398.866 277.483 400.225C276.883 400.552 276.432 401.099 276.225 401.751C274.966 405.628 269.986 411.421 269.986 411.421C270.189 412.313 270.492 413.18 270.888 414.006C271.012 414.261 271.192 414.486 271.414 414.663C271.637 414.84 271.896 414.965 272.173 415.028C272.45 415.091 272.738 415.091 273.015 415.028C273.292 414.965 273.551 414.84 273.774 414.663L294.283 397.952C294.459 397.812 294.602 397.636 294.704 397.436C294.806 397.235 294.865 397.016 294.875 396.791C294.886 396.567 294.848 396.342 294.765 396.133C294.683 395.924 294.556 395.736 294.395 395.579C292.885 394.154 291.475 392.628 290.172 391.012Z" fill="#263238"/>
<path d="M294.417 393.864L310.715 394.02L309.233 413.271L295.609 413.159L294.417 393.864Z" fill="#FFC3BD"/>
<path d="M310.693 410.307C310.706 410.204 310.691 410.1 310.652 410.004C310.612 409.908 310.548 409.824 310.466 409.76C310.384 409.696 310.287 409.654 310.184 409.639C310.082 409.624 309.977 409.635 309.88 409.672C305.423 411.299 297.948 410.062 295.13 409.494C294.447 409.369 293.742 409.508 293.158 409.884C289.549 412.112 283.132 413.449 283.132 413.449C282.683 414.225 282.31 415.042 282.018 415.889C281.924 416.171 281.899 416.472 281.945 416.766C281.99 417.06 282.104 417.339 282.278 417.58C282.452 417.821 282.681 418.018 282.945 418.154C283.21 418.29 283.503 418.361 283.8 418.362H308.933C309.147 418.362 309.358 418.319 309.555 418.236C309.752 418.152 309.931 418.03 310.079 417.876C310.228 417.722 310.344 417.54 310.421 417.34C310.498 417.14 310.533 416.927 310.526 416.713C310.43 414.577 310.486 412.436 310.693 410.307Z" fill="#263238"/>
<path opacity="0.2" d="M294.417 393.875L310.726 394.02L309.891 404.804L295.085 404.67L294.417 393.875Z" fill="black"/>
<path d="M321.042 329.016C326.122 304.808 335.268 273.314 328.84 260.837L276.158 252.683C276.158 252.683 282.697 302.814 284.424 326.109C286.218 350.361 293.336 400.481 293.336 400.481H310.971C310.971 400.481 323.281 357.892 321.042 329.016Z" fill="#2C666E"/>
<path opacity="0.4" d="M321.042 329.016C326.122 304.808 335.268 273.314 328.84 260.837L276.158 252.683C276.158 252.683 282.697 302.814 284.424 326.109C286.218 350.361 293.336 400.481 293.336 400.481H310.971C310.971 400.481 323.281 357.892 321.042 329.016Z" fill="black"/>
<path d="M312.921 401.195H291.699L291.364 392.349L314.748 392.728L312.921 401.195Z" fill="#2C666E"/>
<path d="M290.083 176.215L288.746 177.329L287.499 178.31C286.663 178.945 285.828 179.546 284.981 180.159C283.31 181.373 281.583 182.498 279.856 183.635C276.346 185.887 272.72 187.954 268.995 189.829C265.148 191.793 261.164 193.476 257.074 194.864C252.664 196.42 248.082 197.437 243.427 197.894L242.525 197.984C240.218 198.209 237.912 197.548 236.075 196.134C232.868 193.624 230.315 190.375 228.633 186.665C227.903 185.138 227.306 183.55 226.851 181.919C226.391 180.416 226.019 178.887 225.737 177.341C225.506 175.855 225.328 174.37 225.202 172.884C225.102 171.425 225.079 169.977 225.079 168.54C225.079 167.103 225.191 165.688 225.313 164.284L225.57 162.156L225.937 159.928C226.142 158.692 226.741 157.556 227.646 156.689C228.551 155.822 229.712 155.273 230.956 155.122C232.2 154.971 233.459 155.228 234.545 155.854C235.63 156.479 236.484 157.44 236.977 158.591L237.445 159.705C237.612 160.118 237.813 160.753 238.013 161.287L238.593 162.947C238.971 164.061 239.395 165.175 239.807 166.289C240.577 168.359 241.466 170.382 242.469 172.35C243.281 174.025 244.287 175.599 245.466 177.04C246.089 177.906 246.953 178.568 247.95 178.945L240.598 177.173C243.529 176.459 246.386 175.47 249.131 174.221C250.613 173.575 252.106 172.829 253.587 172.049C255.069 171.269 256.595 170.467 258.044 169.598C261.029 167.86 264.037 166.011 266.956 164.028C268.438 163.059 269.897 162.045 271.356 161.053L273.518 159.527L275.512 158.112L275.968 157.789C278.412 155.917 281.499 155.093 284.55 155.497C287.601 155.902 290.367 157.501 292.239 159.945C294.111 162.388 294.935 165.475 294.531 168.527C294.127 171.578 292.527 174.344 290.083 176.215Z" fill="#FFC3BD"/>
<path d="M236.999 159.438L231.24 163.192C224.188 164.741 223.765 155.327 223.765 155.327L221.737 150.871C221.427 150.063 221.414 149.17 221.702 148.354C221.99 147.537 222.559 146.85 223.308 146.415L227.307 143.763C228.097 143.166 229.088 142.901 230.07 143.024C231.052 143.146 231.947 143.648 232.566 144.421L234.95 147.963C235.64 148.992 236.068 150.174 236.197 151.406L236.999 159.438Z" fill="#FFC3BD"/>
<path d="M289.704 152.82C278.676 152.163 256.005 166.389 256.005 166.389C253.398 174.7 257.943 190.452 264.594 194.352C264.594 194.352 281.472 187.099 289.404 180.047C299.007 171.547 312.019 154.157 289.704 152.82Z" fill="#263238"/>
<path d="M290.729 152.821C305.867 153.722 320.86 156.289 335.435 160.474C343.846 163.014 349.082 169.308 345.317 186.754C337.675 222.147 338.299 251.056 331.759 263.199C331.759 263.199 255.247 267.923 245.009 250.276C247.082 206.573 268.025 173.274 277.316 159.505C278.788 157.331 280.796 155.574 283.146 154.403C285.496 153.232 288.107 152.687 290.729 152.821Z" fill="#263238"/>
<path d="M295.096 157.689C297.068 156.274 298.706 157.522 299.931 155.127C300.623 153.2 300.623 151.093 299.931 149.166L322.034 141.312C320.474 148.754 319.249 154.681 322.112 158.134C322.212 163.872 308.944 169.119 297.737 166.991C287.788 165.075 292.222 159.727 295.096 157.689Z" fill="#FFC3BD"/>
<path opacity="0.2" d="M300.054 149.846L316.764 148.309C311.707 154.079 303.83 156.452 300.132 154.291C300.482 152.827 300.455 151.297 300.054 149.846Z" fill="black"/>
<path d="M298.438 128.902C297.558 120.335 305.902 109.496 312.921 113.239C319.939 116.982 298.438 128.902 298.438 128.902Z" fill="#263238"/>
<path d="M327.86 133.793C323.404 143.541 320.218 150.08 312.81 152.085C298.104 156.085 293.258 148.008 294.673 137.09C295.954 127.276 302.973 112.96 314.258 112.804C316.756 112.77 319.222 113.37 321.426 114.548C323.629 115.726 325.498 117.444 326.857 119.541C328.216 121.638 329.02 124.045 329.196 126.538C329.371 129.03 328.912 131.526 327.86 133.793Z" fill="#FFC3BD"/>
<path d="M325.309 141.602C320.262 140.878 316.564 131.765 321.844 126.997C327.125 122.229 325.309 117.662 321.477 116.303C317.644 114.944 310.682 115.924 309.089 112.515C307.496 109.106 318.112 106.633 324.273 110.554C330.433 114.476 330.122 112.103 330.122 112.103C330.3 112.318 330.414 112.578 330.451 112.855C330.488 113.132 330.445 113.414 330.329 113.668C330.212 113.922 330.027 114.137 329.793 114.29C329.559 114.443 329.287 114.527 329.008 114.531C333.854 117.751 339.223 125.505 334.221 128.68C340.482 132.233 330.745 140.655 325.309 141.602Z" fill="#263238"/>
<path d="M332.628 128.145C333.469 128.508 334.411 128.562 335.288 128.297C336.165 128.032 336.92 127.465 337.419 126.696C337.419 126.696 338.477 130.84 332.628 128.145Z" fill="#263238"/>
<path d="M307.897 138.483C308.374 138.279 308.833 138.033 309.267 137.748C309.291 137.724 309.311 137.695 309.324 137.664C309.338 137.632 309.345 137.598 309.345 137.564C309.345 137.53 309.338 137.496 309.324 137.464C309.311 137.432 309.291 137.404 309.267 137.38C309.221 137.321 309.155 137.281 309.081 137.266C309.007 137.252 308.931 137.265 308.866 137.302C307.894 137.951 306.788 138.372 305.631 138.536C304.475 138.7 303.295 138.602 302.182 138.249C302.118 138.224 302.047 138.225 301.984 138.252C301.922 138.279 301.872 138.33 301.847 138.394C301.822 138.457 301.823 138.528 301.851 138.591C301.878 138.654 301.929 138.703 301.992 138.728C303.921 139.39 306.029 139.302 307.897 138.483Z" fill="#263238"/>
<path opacity="0.2" d="M313.834 130.796C315.087 130.534 316.393 130.778 317.466 131.476C316.223 131.486 314.99 131.255 313.834 130.796Z" fill="black"/>
<path opacity="0.2" d="M313.734 131.654C314.312 131.655 314.882 131.782 315.406 132.026C315.929 132.271 316.393 132.627 316.764 133.069C315.665 132.819 314.632 132.337 313.734 131.654Z" fill="black"/>
<path d="M327.236 144.354C326.247 145.244 325.09 145.927 323.833 146.365C322.577 146.803 321.245 146.987 319.917 146.905C316.352 146.66 316.82 143.853 318.803 141.112C320.563 138.628 323.449 135.096 326.601 136.656C329.754 138.216 329.631 142.137 327.236 144.354Z" fill="#FFC3BD"/>
<path d="M311.807 130.54C311.495 131.353 310.804 131.843 310.281 131.654C309.757 131.464 309.568 130.618 309.88 129.805C310.191 128.991 310.871 128.501 311.406 128.691C311.941 128.88 312.074 129.671 311.807 130.54Z" fill="#263238"/>
<path d="M302.349 126.819C302.048 127.632 301.357 128.122 300.834 127.933C300.31 127.744 300.121 126.897 300.433 126.084C300.745 125.27 301.424 124.78 301.948 124.97C302.471 125.159 302.661 126.006 302.349 126.819Z" fill="#263238"/>
<path d="M305.29 128.145L302.917 135.275C302.062 135.491 301.163 135.457 300.326 135.179C299.489 134.901 298.749 134.389 298.193 133.704C300.555 130.039 305.29 128.145 305.29 128.145Z" fill="#ED847E"/>
<path d="M316.096 125.738C316.179 125.766 316.269 125.766 316.352 125.738C316.485 125.711 316.602 125.633 316.677 125.52C316.752 125.407 316.779 125.27 316.753 125.137C316.617 124.333 316.291 123.573 315.803 122.92C315.315 122.268 314.678 121.74 313.946 121.382C313.884 121.355 313.817 121.341 313.749 121.34C313.682 121.34 313.615 121.353 313.552 121.379C313.49 121.405 313.433 121.443 313.386 121.492C313.339 121.54 313.302 121.598 313.277 121.661C313.229 121.787 313.231 121.926 313.282 122.051C313.334 122.175 313.432 122.275 313.556 122.329C314.139 122.616 314.645 123.037 315.032 123.558C315.419 124.08 315.677 124.685 315.784 125.326C315.795 125.416 315.829 125.502 315.884 125.574C315.939 125.647 316.012 125.703 316.096 125.738Z" fill="#263238"/>
<path d="M298.817 123.009C298.898 123.032 298.984 123.034 299.066 123.015C299.148 122.995 299.223 122.955 299.285 122.898C299.752 122.457 300.316 122.135 300.932 121.956C301.549 121.778 302.198 121.749 302.828 121.873C302.892 121.891 302.96 121.897 303.026 121.889C303.093 121.881 303.157 121.859 303.215 121.826C303.273 121.793 303.324 121.748 303.365 121.695C303.405 121.642 303.435 121.581 303.452 121.516C303.47 121.451 303.476 121.383 303.468 121.316C303.46 121.248 303.439 121.183 303.406 121.124C303.373 121.065 303.328 121.013 303.275 120.972C303.221 120.93 303.16 120.899 303.095 120.881C302.307 120.721 301.491 120.751 300.717 120.968C299.942 121.185 299.23 121.583 298.639 122.129C298.543 122.225 298.489 122.355 298.489 122.491C298.489 122.627 298.543 122.757 298.639 122.853C298.685 122.919 298.746 122.972 298.817 123.009Z" fill="#263238"/>
<path d="M180.841 187.356L176.006 200.557C175.61 201.695 174.913 202.705 173.989 203.48C173.065 204.255 171.949 204.765 170.759 204.957L106.513 214.683C102.369 215.318 99.9177 219.573 101.043 224.186L123.535 316.806C124.649 321.43 128.927 324.66 133.071 324.036L285.995 300.876C290.139 300.241 292.59 295.996 291.476 291.373L264.371 179.758C263.257 175.135 258.979 171.904 254.835 172.528L186.088 182.899C184.892 183.096 183.771 183.615 182.847 184.4C181.923 185.185 181.229 186.207 180.841 187.356Z" fill="#2C666E"/>
<path opacity="0.3" d="M180.841 187.356L176.006 200.557C175.61 201.695 174.913 202.705 173.989 203.48C173.065 204.255 171.949 204.765 170.759 204.957L106.513 214.683C102.369 215.318 99.9177 219.573 101.043 224.186L123.535 316.806C124.649 321.43 128.927 324.66 133.071 324.036L285.995 300.876C290.139 300.241 292.59 295.996 291.476 291.373L264.371 179.758C263.257 175.135 258.979 171.904 254.835 172.528L186.088 182.899C184.892 183.096 183.771 183.615 182.847 184.4C181.923 185.185 181.229 186.207 180.841 187.356Z" fill="black"/>
<path d="M147.877 51.9002C149.384 51.9028 150.89 51.9846 152.389 52.1453C158.092 44.2422 165.82 38.0225 174.759 34.1405C183.698 30.2585 193.519 28.8577 203.187 30.0857C212.856 31.3136 222.014 35.1247 229.699 41.1182C237.385 47.1116 243.312 55.0656 246.859 64.1434C256.067 65.7203 264.346 70.6981 270.058 78.0908C275.769 85.4834 278.495 94.7517 277.697 104.059C276.898 113.367 272.632 122.035 265.745 128.347C258.857 134.658 249.851 138.153 240.509 138.138H147.877C136.561 137.956 125.77 133.333 117.832 125.266C109.894 117.2 105.446 106.336 105.446 95.0188C105.446 83.7016 109.894 72.838 117.832 64.7714C125.77 56.7049 136.561 52.0821 147.877 51.9002Z" fill="#2C666E"/>
<path d="M151.876 123.053V230.558H230.705V146.459L207.311 123.053H151.876Z" fill="#2C666E"/>
<path opacity="0.6" d="M151.876 123.053V230.558H230.705V146.459L207.311 123.053H151.876Z" fill="white"/>
<path opacity="0.4" d="M207.311 146.459V123.053L230.705 146.459H207.311Z" fill="#2C666E"/>
<path d="M208.959 197.905L201.685 210.037C201.045 211.105 200.18 212.021 199.151 212.721C198.122 213.422 196.953 213.889 195.725 214.092L131.489 223.829C129.441 224.184 127.59 225.264 126.272 226.872C124.955 228.48 124.26 230.508 124.315 232.585L128.047 317.074C128.061 318.038 128.283 318.987 128.698 319.857C129.114 320.727 129.712 321.497 130.453 322.114C131.194 322.731 132.059 323.18 132.99 323.431C133.921 323.683 134.895 323.729 135.845 323.568L288.769 300.397C290.817 300.042 292.668 298.961 293.986 297.354C295.303 295.746 295.998 293.718 295.943 291.64L291.487 189.84C291.473 188.876 291.251 187.926 290.836 187.056C290.42 186.186 289.822 185.416 289.081 184.8C288.34 184.183 287.475 183.733 286.544 183.482C285.613 183.231 284.639 183.184 283.689 183.345L214.886 193.806C213.659 194.016 212.492 194.491 211.469 195.199C210.445 195.908 209.588 196.831 208.959 197.905Z" fill="#2C666E"/>
<path d="M211.198 107.468C210.924 107.47 210.656 107.389 210.427 107.238C210.199 107.086 210.021 106.87 209.916 106.616C209.81 106.363 209.783 106.084 209.837 105.815C209.891 105.546 210.023 105.3 210.218 105.106C213.948 101.364 216.485 96.5993 217.509 91.4154C218.534 86.2315 217.999 80.8604 215.972 75.9803C213.946 71.1002 210.519 66.93 206.124 63.9962C201.729 61.0624 196.564 59.4967 191.28 59.4967C185.995 59.4967 180.83 61.0624 176.435 63.9962C172.04 66.93 168.613 71.1002 166.587 75.9803C164.56 80.8604 164.026 86.2315 165.05 91.4154C166.074 96.5993 168.611 101.364 172.341 105.106C172.47 105.235 172.573 105.388 172.643 105.556C172.713 105.724 172.749 105.905 172.749 106.087C172.749 106.269 172.713 106.449 172.643 106.618C172.573 106.786 172.47 106.939 172.341 107.067C172.079 107.323 171.727 107.466 171.361 107.466C170.994 107.466 170.642 107.323 170.38 107.067C166.25 102.937 163.437 97.6746 162.297 91.9457C161.158 86.2169 161.743 80.2787 163.978 74.8822C166.213 69.4856 169.998 64.8731 174.855 61.6279C179.712 58.3827 185.422 56.6506 191.263 56.6506C197.104 56.6506 202.814 58.3827 207.671 61.6279C212.527 64.8731 216.313 69.4856 218.548 74.8822C220.783 80.2787 221.368 86.2169 220.228 91.9457C219.089 97.6746 216.276 102.937 212.145 107.067C211.893 107.318 211.554 107.461 211.198 107.468Z" fill="white"/>
<path d="M203.133 115.745V84.92C203.133 83.5875 202.604 82.3096 201.661 81.3673C200.719 80.4251 199.441 79.8958 198.109 79.8958H184.473C183.14 79.8958 181.862 80.4251 180.92 81.3673C179.978 82.3096 179.449 83.5875 179.449 84.92V115.745H174.313L191.291 130.373L208.257 115.745H203.133Z" fill="white"/>
<path d="M340.549 192.335L339.869 193.861L339.234 195.254C338.8 196.179 338.343 197.07 337.898 197.972C336.995 199.766 336.015 201.504 335.035 203.253C333.036 206.752 330.861 210.146 328.517 213.424C327.314 215.073 326.089 216.766 324.774 218.337C323.46 219.908 322.067 221.523 320.597 223.083C317.549 226.367 314.154 229.31 310.47 231.861L309.701 232.385C309.307 232.649 308.885 232.87 308.443 233.042C304.52 234.479 300.387 235.255 296.21 235.337C292.696 235.461 289.177 235.323 285.683 234.925C282.352 234.536 279.042 233.978 275.768 233.254C272.51 232.536 269.297 231.633 266.143 230.547C264.88 230.101 263.809 229.237 263.106 228.098C262.403 226.959 262.111 225.613 262.279 224.286C262.447 222.958 263.065 221.727 264.029 220.799C264.993 219.871 266.246 219.301 267.58 219.183H267.814L276.849 218.415C279.856 218.147 282.82 217.858 285.694 217.468C287.131 217.278 288.546 217.089 289.916 216.855C291.286 216.621 292.623 216.332 293.893 216.053C295.982 215.638 297.998 214.918 299.876 213.914L297.859 215.095C300.038 213.081 302.043 210.886 303.853 208.533C304.833 207.297 305.78 205.982 306.705 204.634C307.629 203.286 308.565 201.905 309.467 200.501C311.239 197.66 312.999 194.73 314.648 191.734C315.494 190.241 316.285 188.715 317.099 187.211L319.327 182.844L319.594 182.32C320.993 179.663 323.367 177.651 326.218 176.708C329.069 175.764 332.174 175.962 334.882 177.26C337.59 178.557 339.69 180.854 340.741 183.667C341.791 186.481 341.71 189.591 340.516 192.346L340.549 192.335Z" fill="#FFC3BD"/>
<path d="M344.114 172.639C349.472 191.89 335.87 211.029 335.87 211.029C328.662 213.09 309.668 205.693 305.635 198.607C305.635 198.607 312.264 180.404 320.118 170.756C327.403 161.733 340.961 161.354 344.114 172.639Z" fill="#263238"/>
<path d="M269.819 219.663L270.933 226.458C269.44 233.521 260.684 230.045 260.684 230.045H255.804C254.943 229.995 254.127 229.64 253.503 229.044C252.879 228.449 252.486 227.65 252.395 226.792L251.616 222.047C251.396 221.081 251.562 220.068 252.078 219.224C252.594 218.379 253.419 217.769 254.378 217.524L258.578 216.811C259.801 216.601 261.056 216.696 262.232 217.089L269.819 219.663Z" fill="#FFC3BD"/>
</svg>
